<?xml version="1.0" encoding="UTF-8" standalone="no"?>
<svg
   xmlns:dc="http://purl.org/dc/elements/1.1/"
   xmlns:cc="http://creativecommons.org/ns#"
   xmlns:rdf="http://www.w3.org/1999/02/22-rdf-syntax-ns#"
   xmlns:svg="http://www.w3.org/2000/svg"
   xmlns="http://www.w3.org/2000/svg"
   xmlns:sodipodi="http://sodipodi.sourceforge.net/DTD/sodipodi-0.dtd"
   xmlns:inkscape="http://www.inkscape.org/namespaces/inkscape"
   sodipodi:docname="wheel.svg"
   inkscape:version="1.0beta2 (2b71d25, 2019-12-03)"
   id="svg101"
   version="1.1"
   viewBox="0 0 26.45833 26.46176"
   height="26.46176mm"
   width="26.45833mm">
  <defs
     id="defs95" />
  <sodipodi:namedview
     inkscape:window-maximized="0"
     inkscape:window-y="23"
     inkscape:window-x="0"
     inkscape:window-height="855"
     inkscape:window-width="1440"
     showgrid="false"
     inkscape:document-rotation="0"
     inkscape:current-layer="layer1"
     inkscape:document-units="mm"
     inkscape:cy="227.14933"
     inkscape:cx="26.908864"
     inkscape:zoom="1.16"
     inkscape:pageshadow="2"
     inkscape:pageopacity="0.0"
     borderopacity="1.0"
     bordercolor="#666666"
     pagecolor="#ffffff"
     id="base" />
  <metadata
     id="metadata98">
    <rdf:RDF>
      <cc:Work
         rdf:about="">
        <dc:format>image/svg+xml</dc:format>
        <dc:type
           rdf:resource="http://purl.org/dc/dcmitype/StillImage" />
        <dc:title></dc:title>
      </cc:Work>
    </rdf:RDF>
  </metadata>
  <g
     transform="translate(-54.806549,-88.06674)"
     id="layer1"
     inkscape:groupmode="layer"
     inkscape:label="Слой 1">
    <g
       style="fill:#048ad8;fill-opacity:1"
       transform="matrix(0.27964871,0,0,0.27964871,54.051497,87.311688)"
       id="g68">
      <path
         style="fill:#78C2AD;fill-opacity:1"
         inkscape:connector-curvature="0"
         id="path66"
         d="m 14,74.7 4.4,-4.3 C 15.6,66.2 13.8,61.6 12.9,56.9 H 6.7 c -2.2,0 -4,-1.8 -4,-4 v -6.7 c 0,-2.2 1.8,-4 4,-4 h 6.2 c 1,-4.7 2.8,-9.3 5.6,-13.5 l -4.3,-4.4 c -1.6,-1.6 -1.5,-4.1 0,-5.6 L 19,14 c 1.6,-1.6 4.1,-1.5 5.6,0 l 4.3,4.4 c 4.2,-2.8 8.8,-4.6 13.5,-5.5 V 6.7 c 0,-2.2 1.8,-4 4,-4 h 6.7 c 2.2,0 4,1.8 4,4 v 6.2 c 4.7,1 9.3,2.8 13.5,5.6 L 75,14.2 c 1.6,-1.6 4.1,-1.5 5.6,0 l 4.7,4.8 c 1.6,1.6 1.5,4.1 0,5.6 l -4.4,4.3 c 2.8,4.2 4.6,8.8 5.5,13.5 h 6.2 c 2.2,0 4,1.8 4,4 v 6.7 c 0,2.2 -1.8,4 -4,4 h -6.2 c -0.8,4.1 -2.3,8.1 -4.5,11.8 l -6.1,-6.1 c 2.3,-4.6 3.4,-9.9 3,-15.1 C 78.3,40.7 75.3,34 70.3,29 64.8,23.5 57.4,20.4 49.6,20.4 c -7.8,0 -15.1,3 -20.7,8.6 -5.5,5.5 -8.6,12.9 -8.6,20.7 0,7.8 3,15.1 8.6,20.7 5.5,5.5 12.9,8.6 20.7,8.6 4.6,0 9.1,-1.1 13.1,-3.1 l 6.1,6.1 c -3.8,2.2 -7.8,3.8 -12,4.6 v 6.2 c 0,2.2 -1.8,4 -4,4 h -6.7 c -2.2,0 -4,-1.8 -4,-4 V 86.6 C 37.4,85.6 32.8,83.8 28.6,81 l -4.4,4.3 c -1.6,1.6 -4.1,1.5 -5.6,0 L 13.9,80.5 C 12.4,78.7 12.4,76.2 14,74.7 Z m 81.9,21.2 c -1.9,1.9 -5,1.9 -7,0 l -24,-24 0.9,-0.9 -1.4,-1.4 C 54.6,76.9 40.7,76.1 31.8,67.2 22,57.4 22,41.6 31.8,31.9 c 9.8,-9.8 25.6,-9.8 35.3,0 8.9,8.9 9.7,22.8 2.4,32.6 l 1.4,1.4 0.9,-0.9 24,24 c 2,1.9 2,5 0.1,6.9 z M 61.8,37.3 c -6.8,-6.8 -17.7,-6.8 -24.5,0 -6.8,6.8 -6.8,17.7 0,24.5 6.8,6.8 17.7,6.8 24.5,0 6.7,-6.8 6.7,-17.7 0,-24.5 z" />
    </g>
  </g>
</svg>
